<?xml version="1.0" encoding="utf-8"?>
<!-- Generator: Adobe Illustrator 24.2.3, SVG Export Plug-In . SVG Version: 6.00 Build 0)  -->
<svg version="1.1" id="Layer_1" xmlns="http://www.w3.org/2000/svg" xmlns:xlink="http://www.w3.org/1999/xlink" x="0px" y="0px"
	 viewBox="0 0 450 450" style="enable-background:new 0 0 450 450;" xml:space="preserve">
<style type="text/css">
	.st0{fill:#DE5261;}
	.st1{fill:url(#SVGID_1_);}
	.st2{fill:#B41C3B;}
	.st3{fill:#E4E2E3;}
	.st4{fill:#FBFBFC;}
</style>
<g>
	<circle class="st0" cx="225" cy="215" r="125"/>
	<linearGradient id="SVGID_1_" gradientUnits="userSpaceOnUse" x1="140.4944" y1="143.8844" x2="306.6919" y2="310.0818">
		<stop  offset="0" style="stop-color:#C4303B"/>
		<stop  offset="0.3655" style="stop-color:#C5313C"/>
		<stop  offset="0.5852" style="stop-color:#C93641"/>
		<stop  offset="0.7664" style="stop-color:#CF3D4A"/>
		<stop  offset="0.9258" style="stop-color:#D94A58"/>
		<stop  offset="1" style="stop-color:#DE5261"/>
	</linearGradient>
	<path class="st1" d="M278.5,150.4L254.1,126h-92.8c-3.9,0-7.1,3.2-7.1,7.1v152.9c0,2,0.8,3.8,2.2,5.1l46.9,46.9
		c7.1,1.2,14.3,1.9,21.7,1.9c66.8,0,121.3-52.3,124.8-118.2L278.5,150.4z"/>
	<path class="st2" d="M289.6,246.1v-11.8v-72.7L257.1,129h-92.8c-3.9,0-7.1,3.2-7.1,7.1v152.9c0,3.9,3.2,7.1,7.1,7.1h69.6h12.5
		c6.1,9.5,16.8,15.8,29,15.8c19.1,0,34.5-15.4,34.5-34.5C309.8,263.5,301.5,251.5,289.6,246.1z"/>
	<g>
		<g>
			<g>
				<g>
					<g>
						<g>
							<g>
								<path class="st3" d="M254.1,151.4c0,3.9,3.2,7.1,7.1,7.1h25.4L254.1,126V151.4z"/>
							</g>
						</g>
					</g>
				</g>
			</g>
		</g>
		<g>
			<g>
				<g>
					<g>
						<g>
							<g>
								<g>
									<path class="st4" d="M254.1,151.4V126h-92.8c-3.9,0-7.1,3.2-7.1,7.1v152.9c0,3.9,3.2,7.1,7.1,7.1h118.2
										c3.9,0,7.1-3.2,7.1-7.1V158.6h-25.4C257.3,158.6,254.1,155.4,254.1,151.4z"/>
								</g>
							</g>
						</g>
					</g>
				</g>
			</g>
		</g>
		<g>
			<g>
				<g>
					<g>
						<g>
							<g>
								<g>
									<rect x="184" y="176" class="st3" width="72.8" height="7.4"/>
								</g>
							</g>
						</g>
					</g>
				</g>
			</g>
			<g>
				<g>
					<g>
						<g>
							<g>
								<g>
									<rect x="184" y="195.4" class="st3" width="72.8" height="7.4"/>
								</g>
							</g>
						</g>
					</g>
				</g>
			</g>
			<g>
				<g>
					<g>
						<g>
							<g>
								<g>
									<rect x="184" y="214.8" class="st3" width="72.8" height="7.4"/>
								</g>
							</g>
						</g>
					</g>
				</g>
			</g>
		</g>
		<g>
			<g>
				<g>
					<g>
						<g>
							<g>
								<path class="st3" d="M272.4,229c-25.1,0-45.5,20.4-45.5,45.5c0,6.7,1.5,13,4.1,18.7h48.6c3.9,0,7.1-3.2,7.1-7.1v-54.8
									C282.1,229.8,277.3,229,272.4,229z"/>
							</g>
						</g>
					</g>
				</g>
			</g>
		</g>
		<g>
			<g>
				<g>
					<g>
						<g>
							<g>
								<path class="st4" d="M306.8,274.5c0,19.1-15.4,34.5-34.5,34.5c-19,0-34.5-15.4-34.5-34.5c0-19,15.4-34.5,34.5-34.5
									C291.4,240,306.8,255.4,306.8,274.5z"/>
							</g>
						</g>
					</g>
				</g>
			</g>
		</g>
		<g>
			<g>
				<g>
					<g>
						<g>
							<g>
								<g>
									<g>
										<polygon class="st0" points="290.6,263.4 283.4,256.3 272.4,267.3 261.3,256.3 254.2,263.4 265.2,274.5 254.1,285.5 
											261.3,292.7 272.4,281.6 283.4,292.7 290.5,285.5 279.5,274.5 										"/>
									</g>
								</g>
							</g>
						</g>
					</g>
				</g>
			</g>
		</g>
	</g>
</g>
</svg>
